<svg width="246" height="246" viewBox="0 0 246 246" fill="none" xmlns="http://www.w3.org/2000/svg">
<path fill-rule="evenodd" clip-rule="evenodd" d="M0.394043 122.625V245.052H122.821H245.249V122.625V0.197266H122.821H0.394043V122.625ZM54.5398 123.437L54.462 133.464H70.397H86.332V178.743V224.022H97.6031H108.874V178.743V133.464H124.809H140.744V123.631C140.744 118.19 140.628 113.643 140.472 113.526C140.355 113.371 120.961 113.293 97.4476 113.332L54.6563 113.448L54.5398 123.437ZM213.28 121.987C208.927 117.478 204.185 114.719 197.967 113.164C193.731 112.115 183.703 111.804 179.389 112.62C166.097 115.146 156.886 123.658 154.282 135.862C153.543 139.36 153.776 148.027 154.709 151.486C155.836 155.645 158.557 160.619 161.433 163.729C166.408 169.092 171.849 172.473 184.48 177.915C195.518 182.695 199.405 184.988 201.309 187.709C202.786 189.846 203.136 191.09 203.136 193.927C203.136 197.076 202.203 199.213 199.949 201.273C194.663 206.015 183.936 206.598 176.124 202.478C173.404 201.04 168.895 196.726 166.835 193.578L165.359 191.401L158.324 195.482C154.437 197.736 150.317 200.107 149.229 200.729C148.102 201.39 147.092 202.012 146.975 202.167C146.703 202.633 151.095 209.124 153.349 211.611C159.101 217.985 168.429 222.844 178.262 224.593C182.77 225.409 192.72 225.525 196.918 224.787C210.482 222.494 220.12 215.576 224.007 205.393C227.544 196.026 226.378 183.434 221.17 175.544C216.506 168.47 209.005 163.495 191.476 155.956C181.954 151.836 178.923 149.815 177.29 146.433C176.513 144.879 176.241 143.752 176.241 141.847C176.202 135.357 180.983 131.47 188.406 131.975C193.458 132.325 196.762 134.307 199.91 138.893C200.96 140.448 201.892 141.459 202.126 141.303C208.577 137.3 219.227 130.149 219.149 129.838C218.877 128.788 215.534 124.396 213.28 121.987Z" fill="white"/>
</svg>
