<?xml version="1.0" encoding="UTF-8"?>
<svg version="1.1" xmlns="http://www.w3.org/2000/svg" width="625" height="399">
<path d="M0 0 C1.71731066 -0.00115425 3.43462108 -0.00274382 5.15193099 -0.00472724 C9.83877443 -0.00887852 14.52559736 -0.00684899 19.21244085 -0.00374103 C24.2792171 -0.00147004 29.34598994 -0.00497492 34.4127655 -0.00772095 C44.32447724 -0.01215899 54.23618138 -0.01121106 64.14789341 -0.00830831 C72.20291231 -0.00604719 80.2579291 -0.00574482 88.31294823 -0.00683212 C89.46065199 -0.00698536 90.60835575 -0.00713859 91.79083842 -0.00729647 C94.12252762 -0.0076162 96.45421683 -0.00794041 98.78590604 -0.00826906 C120.62933777 -0.01111792 142.4727653 -0.00784579 164.31619634 -0.00246869 C183.0571284 0.0020018 201.79805426 0.00122025 220.53898621 -0.00338745 C242.31360831 -0.00873853 264.08822674 -0.01084643 285.86284941 -0.00777519 C288.18428942 -0.00745664 290.50572942 -0.00714227 292.82716942 -0.00683212 C293.96931464 -0.00667785 295.11145987 -0.00652357 296.28821555 -0.00636462 C304.33571772 -0.00550129 312.38321756 -0.00695832 320.43071938 -0.00931168 C330.23436366 -0.01211565 340.03799994 -0.01135862 349.84164331 -0.00603093 C354.84311233 -0.00340249 359.84456799 -0.00237444 364.84603691 -0.00568008 C369.42450925 -0.00866042 374.00295586 -0.0070212 378.58142587 -0.00170253 C380.23729224 -0.00058582 381.89316078 -0.001153 383.54902575 -0.00357832 C385.80146165 -0.0066243 388.05380969 -0.0034945 390.30624104 0.0011425 C392.18212122 0.00138603 392.18212122 0.00138603 394.09589797 0.00163448 C404.19433054 0.34942617 409.79433174 2.97189401 417.48551941 9.43948364 C423.16310806 16.22104787 425.48717071 22.20741095 425.53993225 31.00946045 C425.56401276 31.95711198 425.58809326 32.90476352 425.61290348 33.88113177 C425.68169351 36.96332931 425.71226303 40.04412769 425.73551941 43.12698364 C425.74807093 44.15081886 425.76062245 45.17465407 425.77355433 46.2295146 C425.86846094 54.15565278 425.87190575 62.08075692 425.86491394 70.00735474 C425.86627247 72.6281283 425.86805493 75.24890167 425.870224 77.86967468 C425.87462374 84.1886816 425.87373201 90.50767651 425.87081136 96.82668386 C425.86853704 101.96291378 425.8682535 107.09914036 425.86933517 112.23537064 C425.86948841 112.97110153 425.86964164 113.70683242 425.86979952 114.46485818 C425.87011929 115.96009758 425.8704435 117.45533698 425.87077211 118.95057638 C425.87360915 132.89956202 425.87036645 146.84854104 425.86497174 160.7975256 C425.86049218 172.75077272 425.86129253 184.70401013 425.8658905 196.65725708 C425.87124516 210.58391435 425.87334835 224.51056587 425.87027824 238.43722403 C425.86995972 239.92215514 425.86964535 241.40708625 425.86933517 242.89201736 C425.8691809 243.62241938 425.86902662 244.3528214 425.86886767 245.10535681 C425.86800617 250.23899513 425.86945721 255.37262979 425.87181473 260.50626755 C425.87491569 267.40931557 425.87270071 274.31234494 425.86692047 281.21539116 C425.86559857 283.74698926 425.86597733 286.2785889 425.86818314 288.81018639 C425.87091655 292.26569036 425.86748682 295.72113551 425.86250305 299.17663574 C425.86473377 300.17720957 425.8669645 301.1777834 425.86926281 302.20867765 C425.82627469 317.57953796 425.82627469 317.57953796 420.92301941 324.00198364 C420.2359491 324.92753052 419.54887878 325.85307739 418.84098816 326.80667114 C416.85483049 328.99549797 415.45512431 330.06358757 412.73551941 331.12698364 C412.73551941 331.78698364 412.73551941 332.44698364 412.73551941 333.12698364 C404.20496589 338.0394062 395.9689867 337.6861891 386.434021 337.62818909 C384.66383653 337.63208458 382.89365519 337.63772701 381.12348121 337.64495999 C376.27173448 337.65969705 371.42031289 337.6495437 366.56857669 337.63522327 C361.33125973 337.62410739 356.09398815 337.63605817 350.85667419 337.64506531 C340.60146646 337.65899583 330.3463819 337.65144278 320.09118003 337.63638972 C308.14680509 337.61952502 296.20246079 337.62274051 284.25807761 337.62648381 C262.94446237 337.63236211 241.6309062 337.61819228 220.31730652 337.59353638 C199.63954961 337.56961874 178.96187165 337.562531 158.28410339 337.57302856 C135.76455965 337.58444068 113.24505241 337.58636396 90.72550911 337.57193047 C88.3236481 337.57040464 85.92178709 337.56888428 83.51992607 337.56736946 C82.33818478 337.56661165 81.15644348 337.56585383 79.93889185 337.56507305 C71.61485022 337.56033227 63.2908249 337.56218024 54.96678352 337.56643486 C44.82051645 337.57136415 34.67432398 337.56536545 24.52807397 337.54554056 C19.35218069 337.53567618 14.17640096 337.53055428 9.00050163 337.53843307 C4.26008444 337.54550127 -0.48010387 337.53865851 -5.22049094 337.52082945 C-6.93303557 337.51679232 -8.64560114 337.51777244 -10.3581379 337.52434831 C-21.50518631 337.56347938 -32.22791338 337.49892005 -41.26448059 330.12698364 C-41.26448059 329.46698364 -41.26448059 328.80698364 -41.26448059 328.12698364 C-42.25448059 327.79698364 -43.24448059 327.46698364 -44.26448059 327.12698364 C-45.61604309 325.38479614 -45.61604309 325.38479614 -46.88948059 323.25198364 C-47.52756653 322.20397583 -47.52756653 322.20397583 -48.17854309 321.13479614 C-50.4532161 316.92910576 -50.43408057 313.05507848 -50.46980286 308.40237427 C-50.47969679 307.60011665 -50.48959072 306.79785904 -50.49978447 305.97129059 C-50.53186539 303.24196895 -50.55653591 300.51263457 -50.58088684 297.78323364 C-50.601746 295.78917205 -50.62283572 293.79511286 -50.64413452 291.80105591 C-50.70128347 286.25198013 -50.75040575 280.70285914 -50.79711151 275.15368652 C-50.82696707 271.62857974 -50.85844376 268.10349022 -50.89015198 264.57839966 C-51.3059605 217.50172543 -51.37355249 170.42422783 -51.386594 123.34596205 C-51.38824007 117.52987347 -51.3912048 111.71378767 -51.39529616 105.89770031 C-51.40245423 95.68190611 -51.40378875 85.46613121 -51.39886284 75.25033569 C-51.39734964 71.8088033 -51.39800475 68.3672824 -51.40062141 64.92575073 C-51.40351835 60.91571143 -51.40152475 56.90570313 -51.39584625 52.89566708 C-51.3945633 51.44573993 -51.39491371 49.99581012 -51.39715397 48.54588413 C-51.4379933 19.34367981 -51.4379933 19.34367981 -44.26448059 10.12698364 C-31.8712383 -1.93954752 -16.15749882 -0.0238402 0 0 Z M83.73551941 63.12698364 C89.7202853 69.73086325 97.1840439 74.74593731 104.92399597 79.08035278 C108.6384194 81.22640847 112.18392633 83.65198827 115.74919128 86.03518677 C118.67837559 87.95475102 121.22886126 89.61360193 124.73551941 90.12698364 C124.73551941 90.78698364 124.73551941 91.44698364 124.73551941 92.12698364 C126.83570955 93.60007475 128.9131967 94.94008 131.11051941 96.25198364 C131.71380066 96.62452271 132.31708191 96.99706177 132.93864441 97.38088989 C136.10897718 99.45426604 136.10897718 99.45426604 139.73551941 100.12698364 C139.73551941 100.78698364 139.73551941 101.44698364 139.73551941 102.12698364 C140.72551941 102.12698364 141.71551941 102.12698364 142.73551941 102.12698364 C142.73551941 102.78698364 142.73551941 103.44698364 142.73551941 104.12698364 C144.50068682 105.28584143 146.32618898 106.35327239 148.17301941 107.37698364 C152.94682548 110.07178305 157.5068606 112.91347389 161.99333191 116.06057739 C163.67937805 117.30100654 163.67937805 117.30100654 165.73551941 117.12698364 C165.73551941 117.78698364 165.73551941 118.44698364 165.73551941 119.12698364 C166.26919128 119.40671021 166.80286316 119.68643677 167.35270691 119.97463989 C172.69000747 122.84644002 177.49256774 126.04913235 182.27848816 129.77151489 C185.41129517 131.49978839 187.18153748 131.45423148 190.73551941 131.12698364 C193.65408351 129.75909959 193.65408351 129.75909959 196.48161316 127.75979614 C197.55886658 127.04380249 198.63612 126.32780884 199.74601746 125.59011841 C200.88853994 124.81101651 202.03087025 124.03163273 203.17301941 123.25198364 C204.35031171 122.46287377 205.52845825 121.67503689 206.70744324 120.88845825 C209.02196414 119.34133917 211.3313924 117.78710805 213.63591003 116.22512817 C216.79671111 114.08556261 219.97242803 111.97008757 223.15446472 109.86233521 C225.44966952 108.34022534 227.73711514 106.80668325 230.02458191 105.27297974 C233.78780784 102.75234867 237.55910903 100.24379453 241.32853699 97.73245239 C244.13706866 95.86083364 246.94408606 93.98712766 249.74723816 92.10745239 C255.47976865 88.26751723 261.2503307 84.49238606 267.04801941 80.75198364 C269.21596198 79.34978787 271.38325299 77.94659587 273.54997253 76.54251099 C275.01914788 75.59096064 276.48921556 74.64078676 277.96012878 73.69192505 C280.07746512 72.32318474 282.18844094 70.94514169 284.29801941 69.56448364 C284.94746521 69.14698853 285.59691101 68.72949341 286.26603699 68.29934692 C287.79178659 67.29441711 289.26960718 66.21734922 290.73551941 65.12698364 C290.73551941 64.46698364 290.73551941 63.80698364 290.73551941 63.12698364 C280.69640393 62.04607816 270.73829227 61.9847095 260.65715027 61.99758911 C258.86044276 61.99623153 257.06373552 61.99444959 255.26702881 61.99227905 C250.42004096 61.98774755 245.57307457 61.98947647 240.72608638 61.99265814 C235.6356887 61.99520358 230.54529277 61.99283818 225.45489502 61.99127197 C216.91033094 61.9894568 208.36577553 61.99183963 199.82121277 61.99661255 C189.96345607 62.00205565 180.10572005 62.00028952 170.24796385 61.99478614 C161.76014496 61.9902385 153.27233229 61.98961249 144.78451258 61.99222481 C139.72561051 61.99377828 134.66671813 61.99400691 129.6078167 61.99068832 C124.85121766 61.98778552 120.09464513 61.98982935 115.33804893 61.99558258 C113.59948521 61.99689723 111.86091922 61.99653826 110.12235641 61.99431992 C101.28217084 61.98408581 92.52758316 62.06612552 83.73551941 63.12698364 Z M11.73551941 92.12698364 C10.96681491 115.41541084 10.61779029 138.65670449 10.83605456 161.95634866 C10.87149246 165.89325172 10.89934831 169.83021003 10.92816162 173.76716614 C10.98329585 181.15375192 11.04480894 188.54026877 11.10888296 195.92678183 C11.18175057 204.36516659 11.24709721 212.80360504 11.31195343 221.24205458 C11.44504083 238.53710122 11.58711388 255.83206178 11.73551941 273.12698364 C15.11803009 275.16775118 17.70846733 275.3766849 21.62852764 275.37587261 C23.44743119 275.38277081 23.44743119 275.38277081 25.30308026 275.38980836 C26.65048966 275.38479323 27.99789837 275.37959098 29.3453064 275.3742218 C30.77522805 275.37580966 32.20514895 275.37827302 33.63506776 275.38153821 C37.56908073 275.3879621 41.50299106 275.38187558 45.43699729 275.37377393 C49.67761625 275.36720482 53.91822358 275.37214364 58.15884399 275.37565613 C66.46722693 275.38070189 74.77557011 275.37505207 83.0839481 275.36580583 C92.75099398 275.35543319 102.41803121 275.3554917 112.08508161 275.35597841 C129.32656083 275.35647922 146.5680215 275.34731153 163.80949402 275.33279419 C180.55721881 275.3186998 197.30492728 275.31162368 214.05265808 275.31228638 C215.08454225 275.31232633 216.11642643 275.31236629 217.17957982 275.31240746 C218.72467658 275.31246799 218.72467658 275.31246799 220.30098742 275.31252974 C239.34584389 275.31321873 258.3906934 275.30733527 277.43554762 275.29837653 C284.18178567 275.2953545 290.92802244 275.2942963 297.67426109 275.29384422 C305.88778583 275.29316364 314.10129883 275.28872061 322.31481858 275.27951141 C326.50930129 275.27487971 330.70376895 275.27185296 334.89825439 275.27310562 C338.73161998 275.27419498 342.5649522 275.27071738 346.39831082 275.2634571 C347.79119999 275.26163326 349.18409259 275.26152357 350.57698192 275.26322439 C352.45800008 275.26526833 354.33902207 275.2606524 356.2200346 275.2556181 C357.79281139 275.25456146 357.79281139 275.25456146 359.39736146 275.25348347 C361.69491992 275.39020776 361.69491992 275.39020776 362.73551941 274.12698364 C362.84408575 272.36651857 362.88239523 270.60169416 362.89373779 268.83792114 C362.90352661 267.68942688 362.91331543 266.54093262 362.92340088 265.3576355 C362.92915634 264.08527039 362.9349118 262.81290527 362.94084167 261.50198364 C362.95041808 260.15637916 362.96042802 258.81077771 362.97084045 257.46517944 C362.99800933 253.78960593 363.01897623 250.11401955 363.03884244 246.43840027 C363.06076851 242.56471486 363.0881559 238.69106794 363.11489868 234.81741333 C363.15928128 228.27674098 363.19999849 221.73605424 363.23820496 215.19534302 C363.29138267 206.09337396 363.35133405 196.99145928 363.41260064 187.88954163 C363.45540098 181.48865574 363.49642448 175.08775824 363.53719211 168.68685913 C363.54691481 167.16256679 363.55669029 165.63827479 363.56652188 164.11398315 C363.63054803 154.1730507 363.68461742 144.23212949 363.72597361 134.29107666 C363.73591027 132.03837401 363.7474538 129.78568333 363.75921249 127.5329895 C363.77869428 123.70712757 363.79253763 119.88127973 363.80256641 116.05538177 C363.80712888 114.61041362 363.81340225 113.1654497 363.82151711 111.72049713 C363.83236745 109.72287496 363.83614394 107.72521818 363.83963013 105.72756958 C363.84369842 104.5944635 363.8477667 103.46135742 363.85195827 102.29391479 C363.73659556 99.156253 363.32317275 96.20814439 362.73551941 93.12698364 C359.16149429 94.43409177 356.22554508 96.01110659 353.11051941 98.18948364 C350.56395785 99.96686193 348.70354125 101.13764303 345.73551941 102.12698364 C345.73551941 102.78698364 345.73551941 103.44698364 345.73551941 104.12698364 C345.00204285 104.40413208 344.26856628 104.68128052 343.51286316 104.96682739 C334.68618076 108.65392257 326.72225765 114.65741989 318.7096405 119.85012817 C316.61313372 121.20614233 314.51252723 122.55563964 312.41130066 123.90432739 C303.18847856 129.82997166 303.18847856 129.82997166 294.17301941 136.06448364 C290.19681666 138.9017055 286.16628284 141.07570428 281.73551941 143.12698364 C281.73551941 143.78698364 281.73551941 144.44698364 281.73551941 145.12698364 C280.75132019 145.45956177 280.75132019 145.45956177 279.74723816 145.79885864 C275.71836367 147.57553481 272.20926118 149.94600328 268.54801941 152.37698364 C262.89717646 156.095458 257.22896676 159.69554977 251.32536316 163.00588989 C250.80071472 163.37585083 250.27606628 163.74581177 249.73551941 164.12698364 C249.73551941 164.78698364 249.73551941 165.44698364 249.73551941 166.12698364 C249.15801941 166.25073364 248.58051941 166.37448364 247.98551941 166.50198364 C245.71216174 167.13347188 243.81016651 168.01556555 241.73551941 169.12698364 C241.73551941 169.78698364 241.73551941 170.44698364 241.73551941 171.12698364 C240.99301941 171.41573364 240.25051941 171.70448364 239.48551941 172.00198364 C237.16812144 172.95001008 234.95634826 173.97544276 232.73551941 175.12698364 C232.73551941 175.78698364 232.73551941 176.44698364 232.73551941 177.12698364 C231.85637878 177.38479614 230.97723816 177.64260864 230.07145691 177.90823364 C226.71215011 179.13552137 224.28281536 180.58388848 221.36051941 182.62698364 C216.42505931 185.99122985 211.46154649 189.2936257 206.42301941 192.50198364 C205.76575867 192.93059692 205.10849792 193.35921021 204.43132019 193.80081177 C197.49433963 198.19312362 190.87552107 200.07423297 182.63395691 198.80276489 C175.64416654 197.15467051 170.02298317 193.42820342 164.09318542 189.5317688 C160.7022633 187.02178118 160.7022633 187.02178118 156.73551941 186.12698364 C156.73551941 185.46698364 156.73551941 184.80698364 156.73551941 184.12698364 C155.84091003 183.63069458 154.94630066 183.13440552 154.02458191 182.62307739 C147.49295282 178.96598172 141.20498104 175.19678936 135.12223816 170.81838989 C131.86362167 168.50909212 128.49270415 166.40035895 125.11442566 164.27151489 C114.16843469 157.35304789 103.3485621 150.22863425 92.59098816 143.02151489 C85.22964351 138.13744902 77.76537746 133.40920846 70.29801941 128.68948364 C67.11679339 126.67754754 63.9739489 124.62062933 60.86051941 122.50588989 C60.18819275 122.05077026 59.51586609 121.59565063 58.82316589 121.1267395 C57.49886143 120.22774512 56.17790037 119.32380063 54.86076355 118.41433716 C51.83405095 116.36105581 49.31191803 114.86941111 45.73551941 114.12698364 C45.73551941 113.46698364 45.73551941 112.80698364 45.73551941 112.12698364 C43.75551941 111.46698364 41.77551941 110.80698364 39.73551941 110.12698364 C39.73551941 109.46698364 39.73551941 108.80698364 39.73551941 108.12698364 C38.30659363 107.33034302 38.30659363 107.33034302 36.84880066 106.51760864 C31.20634276 103.29497089 25.77964117 99.72273474 20.32341003 96.19729614 C19.50421082 95.67393677 18.6850116 95.15057739 17.84098816 94.61135864 C17.10001892 94.13408325 16.35904968 93.65680786 15.59562683 93.16506958 C13.79947419 91.9645418 13.79947419 91.9645418 11.73551941 92.12698364 Z " fill="#FD1493" transform="translate(125.26448059082031,30.873016357421875)"/>
<path d="M0 0 C0.66 0.33 1.32 0.66 2 1 C0.03947929 3.94078107 -0.59717777 4.51424356 -3.5625 6 C-7.24594608 7.63623172 -7.24594608 7.63623172 -8 11 C-8.825 11.309375 -9.65 11.61875 -10.5 11.9375 C-11.325 12.288125 -12.15 12.63875 -13 13 C-13.8237956 14.96128755 -13.8237956 14.96128755 -14 17 C-14.33 17.66 -14.66 18.32 -15 19 C-15.0986174 20.62060608 -15.13386166 22.24524061 -15.1386652 23.86883736 C-15.14413964 24.90390454 -15.14961409 25.93897173 -15.15525442 27.00540459 C-15.15623253 28.1512996 -15.15721064 29.29719462 -15.15821838 30.47781372 C-15.16315636 31.68825407 -15.16809434 32.89869442 -15.17318195 34.14581478 C-15.1859258 37.51617095 -15.19419119 40.8864855 -15.20060861 44.2568562 C-15.20859769 47.88740559 -15.22230058 51.51793382 -15.23532104 55.14846802 C-15.25710502 61.44212305 -15.27524247 67.7357802 -15.29092598 74.02945328 C-15.31360714 83.12912629 -15.34175238 92.2287759 -15.37124526 101.32842909 C-15.41894271 116.09084995 -15.46220105 130.85328038 -15.50268555 145.61572266 C-15.54202953 159.95882918 -15.58345311 174.30192721 -15.62768555 188.64501953 C-15.63040982 189.52864478 -15.63313409 190.41227002 -15.63594092 191.32267179 C-15.64962021 195.75541571 -15.66334052 200.18815951 -15.67708123 204.62090325 C-15.79107983 241.41391786 -15.89788168 278.2069506 -16 315 C-15.01 315.33 -14.02 315.66 -13 316 C-9 322 -9 322 -9 324 C-8.360625 324.103125 -7.72125 324.20625 -7.0625 324.3125 C-6.0415625 324.6528125 -6.0415625 324.6528125 -5 325 C-4.505 326.485 -4.505 326.485 -4 328 C3.62127061 333.53573489 12.47780191 332.54567104 21.47631836 332.48101807 C23.27751342 332.48276317 25.0787075 332.48626695 26.87989616 332.49137473 C31.82163648 332.50031055 36.76302943 332.48433015 41.7047255 332.46426249 C47.03660449 332.44698186 52.36846404 332.45283463 57.70036316 332.45587158 C66.93564491 332.45796855 76.17081358 332.44542302 85.40606689 332.42292023 C98.75865946 332.39040623 112.11119737 332.37999381 125.46382523 332.37496826 C147.12776994 332.36621468 168.7916544 332.33959735 190.45556641 332.30175781 C211.49950865 332.26503939 232.54343453 332.23672678 253.58740234 332.21972656 C254.88464363 332.21867567 256.18188492 332.21762477 257.51843655 332.21654204 C264.02634237 332.21132187 270.5342483 332.20626704 277.04215431 332.20129442 C331.02814452 332.15983042 385.01406932 332.08938022 439 332 C439.66 330.68 440.32 329.36 441 328 C442.65 328 444.3 328 446 328 C446.66 326.02 447.32 324.04 448 322 C448.66 322 449.32 322 450 322 C450.33 320.68 450.66 319.36 451 318 C451.66 318 452.32 318 453 318 C453 317.01 453 316.02 453 315 C453.66 315 454.32 315 455 315 C454.505 166.5 454.505 166.5 454 15 C457.37662309 19.50216412 457.37662309 19.50216412 457.50716972 23.25811195 C457.5594632 24.51836349 457.5594632 24.51836349 457.61281312 25.80407465 C457.63479102 26.71682236 457.65676893 27.62957007 457.67941284 28.56997681 C457.71251678 29.54018694 457.74562073 30.51039706 457.77972782 31.5100075 C458.15191068 43.63025146 458.14008931 55.75571837 458.12939453 67.88037109 C458.13075307 70.50114465 458.13253552 73.12191802 458.13470459 75.74269104 C458.13910433 82.06169796 458.1382126 88.38069287 458.13529195 94.69970022 C458.13301763 99.83593013 458.13273409 104.97215672 458.13381577 110.10838699 C458.133969 110.84411788 458.13412223 111.57984877 458.13428011 112.33787454 C458.13459988 113.83311394 458.13492409 115.32835334 458.1352527 116.82359274 C458.13808974 130.77257838 458.13484704 144.7215574 458.12945233 158.67054196 C458.12497277 170.62378907 458.12577312 182.57702649 458.13037109 194.53027344 C458.13572575 208.45693071 458.13782894 222.38358223 458.13475883 236.31024039 C458.13444031 237.7951715 458.13412594 239.28010261 458.13381577 240.76503372 C458.13366149 241.49543574 458.13350721 242.22583775 458.13334826 242.97837316 C458.13248676 248.11201149 458.1339378 253.24564615 458.13629532 258.37928391 C458.13939628 265.28233193 458.1371813 272.1853613 458.13140106 279.08840752 C458.13007916 281.62000562 458.13045792 284.15160526 458.13266373 286.68320274 C458.13539714 290.13870672 458.13196741 293.59415187 458.12698364 297.0496521 C458.12921436 298.05022593 458.13144509 299.05079976 458.13374341 300.08169401 C458.09075528 315.45255431 458.09075528 315.45255431 453.1875 321.875 C452.50042969 322.80054688 451.81335938 323.72609375 451.10546875 324.6796875 C449.11931108 326.86851432 447.71960491 327.93660392 445 329 C445 329.66 445 330.32 445 331 C436.46944648 335.91242255 428.23346729 335.55920545 418.69850159 335.50120544 C416.92831712 335.50510094 415.15813578 335.51074337 413.3879618 335.51797634 C408.53621507 335.53271341 403.68479348 335.52256006 398.83305728 335.50823963 C393.59574032 335.49712375 388.35846874 335.50907453 383.12115479 335.51808167 C372.86594705 335.53201219 362.61086249 335.52445914 352.35566062 335.50940608 C340.41128568 335.49254138 328.46694138 335.49575687 316.5225582 335.49950016 C295.20894296 335.50537847 273.89538679 335.49120864 252.58178711 335.46655273 C231.9040302 335.44263509 211.22635224 335.43554736 190.54858398 335.44604492 C168.02904024 335.45745703 145.509533 335.45938031 122.9899897 335.44494683 C120.58812869 335.443421 118.18626768 335.44190064 115.78440666 335.44038582 C114.60266537 335.439628 113.42092407 335.43887019 112.20337244 335.43808941 C103.87933081 335.43334862 95.55530549 335.4351966 87.23126411 335.43945122 C77.08499704 335.44438051 66.93880457 335.43838181 56.79255456 335.41855692 C51.61666128 335.40869254 46.44088155 335.40357063 41.26498222 335.41144943 C36.52456503 335.41851763 31.78437672 335.41167487 27.04398965 335.3938458 C25.33144502 335.38980868 23.61887946 335.3907888 21.90634269 335.39736467 C10.75929428 335.43649574 0.03656721 335.37193641 -9 328 C-9 327.34 -9 326.68 -9 326 C-9.99 325.67 -10.98 325.34 -12 325 C-13.3515625 323.2578125 -13.3515625 323.2578125 -14.625 321.125 C-15.26308594 320.07699219 -15.26308594 320.07699219 -15.9140625 319.0078125 C-18.18873551 314.80212212 -18.16959998 310.92809483 -18.20532227 306.27539062 C-18.2152162 305.47313301 -18.22511013 304.6708754 -18.23530388 303.84430695 C-18.2673848 301.11498531 -18.29205532 298.38565092 -18.31640625 295.65625 C-18.33726541 293.66218841 -18.35835513 291.66812921 -18.37965393 289.67407227 C-18.43680288 284.12499649 -18.48592516 278.5758755 -18.53263092 273.02670288 C-18.56248648 269.5015961 -18.59396317 265.97650657 -18.62567139 262.45141602 C-19.04147991 215.37474179 -19.1090719 168.29724418 -19.12211341 121.2189784 C-19.12375948 115.40288983 -19.12672421 109.58680402 -19.13081557 103.77071667 C-19.13797364 93.55492247 -19.13930816 83.33914757 -19.13438225 73.12335205 C-19.13286905 69.68181966 -19.13352416 66.24029876 -19.13614082 62.79876709 C-19.13903776 58.78872779 -19.13704416 54.77871948 -19.13136566 50.76868343 C-19.13008271 49.31875629 -19.13043312 47.86882647 -19.13267338 46.41890049 C-19.17354525 17.19342549 -19.17354525 17.19342549 -12 8 C-8.35244144 4.50157501 -4.82171239 1.60723746 0 0 Z " fill="#F267B1" transform="translate(93,33)"/>
<path d="M0 0 C1.68080007 1.68080007 1.12473128 3.74874742 1.13374341 5.99261856 C1.13039732 7.07280069 1.13039732 7.07280069 1.12698364 8.17480469 C1.12854363 8.93449429 1.13010362 9.69418388 1.13171089 10.47689438 C1.1357238 13.04190721 1.13253013 15.60686165 1.12939453 18.171875 C1.13074844 20.00288935 1.13252832 21.83390343 1.13470459 23.66491699 C1.13928012 28.65237592 1.13748887 33.63981426 1.1343255 38.62727356 C1.13180252 43.8345241 1.13413927 49.04177283 1.13571167 54.24902344 C1.13753355 62.99544594 1.13512658 71.74186002 1.13037109 80.48828125 C1.12492844 90.6158249 1.12669108 100.74334841 1.1321975 110.87089157 C1.13672812 119.54941353 1.13737943 128.22792942 1.13475883 136.90645218 C1.13319577 142.09710266 1.13300307 147.28774367 1.13629532 152.47839355 C1.13917329 157.35711108 1.13719971 162.23580252 1.13140106 167.11451721 C1.13007306 168.91048642 1.13046825 170.70645779 1.13266373 172.50242615 C1.13537368 174.94337935 1.13199603 177.38424761 1.12698364 179.82519531 C1.12921436 180.54531673 1.13144509 181.26543816 1.13374341 182.00738144 C1.11414986 186.88585014 1.11414986 186.88585014 0 188 C-1.8817816 188.09762276 -3.76728502 188.12371343 -5.65159702 188.12304783 C-6.88671011 188.12503888 -8.12182319 188.12702993 -9.39436394 188.12908131 C-10.78273065 188.12622772 -12.17109716 188.12328211 -13.5594635 188.12025452 C-15.02050608 188.12069009 -16.48154857 188.12156474 -17.94259065 188.12284368 C-21.97649831 188.12509138 -26.01037968 188.12106363 -30.04428399 188.11606562 C-34.38718361 188.11176522 -38.73008164 188.11320725 -43.07298279 188.1139679 C-50.60368771 188.11449339 -58.134384 188.11134392 -65.66508675 188.10573006 C-76.55334906 188.09761852 -87.44160718 188.09500019 -98.32987218 188.09374207 C-115.99343604 188.091551 -133.65699529 188.08488943 -151.32055664 188.07543945 C-168.48364234 188.06626675 -185.6467268 188.05918522 -202.80981445 188.05493164 C-203.86694816 188.05466892 -204.92408188 188.05440619 -206.01324994 188.05413551 C-211.31634052 188.05283051 -216.61943111 188.0515668 -221.92252171 188.05032361 C-265.9483519 188.03994929 -309.97417357 188.02151007 -354 188 C-354 138.83 -354 89.66 -354 39 C-353.67 39 -353.34 39 -353 39 C-352.67 86.52 -352.34 134.04 -352 183 C-348.81673921 184.06108693 -346.57182707 184.12425744 -343.22724628 184.12304783 C-342.01601827 184.12503888 -340.80479025 184.12702993 -339.55685836 184.12908131 C-338.20581818 184.1262281 -336.8547782 184.1232825 -335.5037384 184.12025452 C-334.07396812 184.12069035 -332.64419791 184.12156549 -331.21442813 184.12284368 C-327.27625148 184.12508619 -323.33810189 184.12107067 -319.39992869 184.11606562 C-315.15658799 184.11175783 -310.91324889 184.11320778 -306.66990662 184.1139679 C-299.31494089 184.11449292 -291.95998402 184.11134835 -284.60502052 184.10573006 C-273.97090291 184.09761217 -263.3367896 184.09499954 -252.70266923 184.09374207 C-235.45062146 184.091552 -218.19857841 184.08489315 -200.9465332 184.07543945 C-184.18514021 184.06626416 -167.42374851 184.0591839 -150.66235352 184.05493164 C-149.62964122 184.05466892 -148.59692892 184.05440619 -147.53292231 184.05413551 C-142.35224556 184.0528305 -137.17156881 184.05156678 -131.99089205 184.05032361 C-88.99392476 184.03995241 -45.99696263 184.02233533 -3 184 C-2.86786893 166.15906981 -2.73742426 148.31812806 -2.60884857 130.4771719 C-2.5490768 122.18847015 -2.48879837 113.89977272 -2.42724609 105.61108398 C-2.35617455 96.03109837 -2.28643329 86.45110393 -2.21875 76.87109375 C-2.21327274 76.09583328 -2.20779549 75.32057281 -2.20215225 74.52181959 C-2.03458133 50.68110126 -1.92165814 26.84138707 -2 3 C-2.55429687 3.3609375 -3.10859375 3.721875 -3.6796875 4.09375 C-4.40414063 4.5578125 -5.12859375 5.021875 -5.875 5.5 C-6.59429687 5.9640625 -7.31359375 6.428125 -8.0546875 6.90625 C-10 8 -10 8 -12 8 C-12 7.34 -12 6.68 -12 6 C-11.34 6 -10.68 6 -10 6 C-9.67 5.01 -9.34 4.02 -9 3 C-8.34 3 -7.68 3 -7 3 C-7 2.34 -7 1.68 -7 1 C-4.51588385 -0.24205807 -2.74800896 -0.14092354 0 0 Z " fill="#F363B2" transform="translate(490,121)"/>
<path d="M0 0 C143.55 0 287.1 0 435 0 C435 0.66 435 1.32 435 2 C436.258125 2.0825 437.51625 2.165 438.8125 2.25 C440.95703125 2.390625 440.95703125 2.390625 443 3 C443.99 4.32 444.98 5.64 446 7 C442.37 6.34 438.74 5.68 435 5 C435 4.34 435 3.68 435 3 C434.34 3 433.68 3 433 3 C433 2.34 433 1.68 433 1 C379.46095412 1.0817872 325.92193477 1.173963 272.38293122 1.28005161 C266.06070755 1.29257033 259.73848371 1.30500313 253.41625977 1.31738281 C251.52831567 1.3210818 251.52831567 1.3210818 249.60223129 1.32485552 C229.22852946 1.36456824 208.8548221 1.39732217 188.48110417 1.42749982 C167.57240533 1.45862495 146.66372996 1.49723892 125.75505751 1.54279006 C112.85558596 1.57065695 99.95613157 1.59269782 87.05663802 1.60726251 C78.20836126 1.61781284 69.36011772 1.63564406 60.51186601 1.65916704 C55.40859964 1.67252006 50.30537981 1.68269514 45.20209503 1.68421364 C40.52411364 1.68567665 35.84624421 1.69634307 31.16829725 1.71413441 C29.481677 1.7189593 27.79504319 1.72049183 26.10841749 1.71827881 C16.54946376 1.70780121 7.4145757 2.19069946 -2 4 C-1.34 2.68 -0.68 1.36 0 0 Z " fill="#E6228E" transform="translate(95,33)"/>
<path d="M0 0 C0.66 0.33 1.32 0.66 2 1 C0.03947929 3.94078107 -0.59717777 4.51424356 -3.5625 6 C-7.24594608 7.63623172 -7.24594608 7.63623172 -8 11 C-8.825 11.309375 -9.65 11.61875 -10.5 11.9375 C-11.325 12.288125 -12.15 12.63875 -13 13 C-13.8237956 14.96128755 -13.8237956 14.96128755 -14 17 C-14.33 17.66 -14.66 18.32 -15 19 C-15.0986174 20.62060608 -15.13386166 22.24524061 -15.1386652 23.86883736 C-15.14413964 24.90390454 -15.14961409 25.93897173 -15.15525442 27.00540459 C-15.15623253 28.1512996 -15.15721064 29.29719462 -15.15821838 30.47781372 C-15.16315636 31.68825407 -15.16809434 32.89869442 -15.17318195 34.14581478 C-15.1859258 37.51617095 -15.19419119 40.8864855 -15.20060861 44.2568562 C-15.20859769 47.88740559 -15.22230058 51.51793382 -15.23532104 55.14846802 C-15.25710502 61.44212305 -15.27524247 67.7357802 -15.29092598 74.02945328 C-15.31360714 83.12912629 -15.34175238 92.2287759 -15.37124526 101.32842909 C-15.41894271 116.09084995 -15.46220105 130.85328038 -15.50268555 145.61572266 C-15.54202953 159.95882918 -15.58345311 174.30192721 -15.62768555 188.64501953 C-15.63040982 189.52864478 -15.63313409 190.41227002 -15.63594092 191.32267179 C-15.64962021 195.75541571 -15.66334052 200.18815951 -15.67708123 204.62090325 C-15.79107983 241.41391786 -15.89788168 278.2069506 -16 315 C-15.01 315.33 -14.02 315.66 -13 316 C-9 322 -9 322 -9 324 C-8.360625 324.103125 -7.72125 324.20625 -7.0625 324.3125 C-6.0415625 324.6528125 -6.0415625 324.6528125 -5 325 C-4.505 326.485 -4.505 326.485 -4 328 C-2.13977928 329.23277127 -2.13977928 329.23277127 0.0625 330.1875 C1.16271484 330.70376953 1.16271484 330.70376953 2.28515625 331.23046875 C2.85105469 331.48441406 3.41695312 331.73835938 4 332 C4 332.66 4 333.32 4 334 C-6.01834862 330.98165138 -6.01834862 330.98165138 -9 328 C-9 327.34 -9 326.68 -9 326 C-9.99 325.67 -10.98 325.34 -12 325 C-17.68715921 319.09755726 -17.71329018 312.49621288 -17.64164734 304.71609497 C-17.65015286 303.49124952 -17.65865838 302.26640407 -17.66742164 301.0044421 C-17.68579908 297.62086732 -17.68188352 294.2386756 -17.66828239 290.85516858 C-17.65900583 287.19994783 -17.67853335 283.54486197 -17.69425964 279.88967896 C-17.72032012 272.73514834 -17.71926642 265.58086924 -17.70822146 258.42630924 C-17.69965506 252.60943732 -17.7005001 246.79263805 -17.70801735 240.97576523 C-17.70907224 240.147128 -17.71012713 239.31849078 -17.71121398 238.46474334 C-17.71338497 236.7812329 -17.71557174 235.09772249 -17.71777413 233.41421209 C-17.73719566 217.6343872 -17.72521454 201.85470324 -17.70298818 186.07488988 C-17.68474294 172.54608266 -17.69563471 159.01754843 -17.72729492 145.48876953 C-17.76408385 129.76760685 -17.78106966 114.04661463 -17.76788265 98.32540882 C-17.76654159 96.64756134 -17.76523261 94.96971383 -17.76395607 93.2918663 C-17.7633254 92.46640025 -17.76269474 91.64093419 -17.76204496 90.79045401 C-17.75902163 84.9841024 -17.7702608 79.1778797 -17.78720665 73.37155533 C-17.80756271 66.29022552 -17.80661506 59.20928071 -17.77857425 52.12797083 C-17.76483046 48.51741903 -17.76055363 44.90753862 -17.78252411 41.29701233 C-17.80606232 37.37694563 -17.78280026 33.45792949 -17.75517273 29.53787231 C-17.76923918 28.4051732 -17.78330563 27.27247408 -17.79779834 26.10545075 C-17.68855724 18.40107743 -15.88049966 13.03153765 -11 7 C-7.56271868 3.87680964 -4.42644285 1.47548095 0 0 Z " fill="#EE4CA1" transform="translate(93,33)"/>
<path d="M0 0 C27.19839534 -0.04667184 54.3967847 -0.08196518 81.59521198 -0.10362434 C94.2232376 -0.1139473 106.85123837 -0.12802708 119.47924805 -0.15087891 C130.48278116 -0.1707816 141.48629628 -0.18370901 152.48984689 -0.18817699 C158.31887455 -0.19078967 164.14785075 -0.1969517 169.97686195 -0.21146011 C175.45885231 -0.22499476 180.94076979 -0.22923101 186.42277527 -0.22621536 C188.43882836 -0.22676738 190.45488379 -0.23076924 192.47092247 -0.23841095 C195.21563508 -0.24830779 197.96006966 -0.2459882 200.70478821 -0.24050903 C201.50925788 -0.24633472 202.31372755 -0.2521604 203.14257509 -0.25816262 C206.96602598 -0.23741971 208.7401462 -0.17323586 212 2 C212 2.99 212 3.98 212 5 C210.35 5 208.7 5 207 5 C207 4.34 207 3.68 207 3 C205.55469202 2.99365209 205.55469202 2.99365209 204.08018589 2.98717594 C180.57410935 2.88372369 157.068062 2.77494355 133.56203556 2.66066074 C122.19444313 2.605515 110.82684757 2.55206493 99.45922852 2.50268555 C89.54472278 2.4596139 79.6302384 2.41328038 69.71576589 2.36312145 C64.47206312 2.33670419 59.22836408 2.31185817 53.98463631 2.29092598 C49.03610035 2.27112042 44.08760437 2.24691123 39.13910484 2.21950912 C37.33535118 2.21026355 35.53158884 2.20254545 33.72782135 2.19658089 C22.4509444 2.15818516 11.25045985 1.78342415 0 1 C0 0.67 0 0.34 0 0 Z " fill="#ED469D" transform="translate(209,91)"/>
<path d="M0 0 C2.53374688 2.53374688 2.25319196 3.39544824 2.26285553 6.90616703 C2.27437896 8.47134275 2.27437896 8.47134275 2.2861352 10.06813818 C2.28440223 11.22345791 2.28266927 12.37877764 2.28088379 13.56910706 C2.28979716 15.39974375 2.28979716 15.39974375 2.29889059 17.26736301 C2.3132833 20.66600294 2.31861169 24.06444076 2.32008553 27.46309674 C2.32378067 31.12450445 2.33887265 34.78586806 2.35235596 38.44725037 C2.37955212 46.45987124 2.39157752 54.47247214 2.40037727 62.4851315 C2.40589898 67.48806194 2.41437329 72.49098463 2.42338562 77.49390984 C2.44777828 91.34372886 2.4683732 105.19354165 2.4751358 119.04338169 C2.47557494 119.93033077 2.47601407 120.81727984 2.47646651 121.73110616 C2.47690306 122.62019522 2.47733962 123.50928428 2.4777894 124.42531544 C2.47867634 126.22698438 2.47956946 128.02865333 2.48046875 129.83032227 C2.48113304 131.17086122 2.48113304 131.17086122 2.48181075 132.53848176 C2.48970222 147.01092045 2.5245931 161.48315744 2.57118779 175.95551825 C2.61863277 190.8119061 2.64354043 205.66819283 2.64587164 220.52465767 C2.64770454 228.86681112 2.6591929 237.20870206 2.69551086 245.55078316 C2.72633783 252.65676902 2.73653978 259.76241133 2.72003466 266.86845136 C2.71222898 270.4930411 2.71404144 274.11693932 2.74214935 277.74144363 C2.77237614 281.67526199 2.75587192 285.60811115 2.73498535 289.54200745 C2.75109816 290.68171212 2.76721097 291.8214168 2.78381205 292.99565798 C2.67734187 301.57248314 0.09361516 306.45580385 -5.57134771 312.74430472 C-7 314 -7 314 -9 314 C-9 314.66 -9 315.32 -9 316 C-14.75 319 -14.75 319 -17 319 C-17 318.34 -17 317.68 -17 317 C-16.34 317 -15.68 317 -15 317 C-14.01 315.02 -14.01 315.02 -13 313 C-11.35 313 -9.7 313 -8 313 C-7.34 311.02 -6.68 309.04 -6 307 C-5.34 307 -4.68 307 -4 307 C-3.505 305.02 -3.505 305.02 -3 303 C-2.34 303 -1.68 303 -1 303 C-1 302.01 -1 301.02 -1 300 C-0.34 300 0.32 300 1 300 C0.67 201 0.34 102 0 0 Z " fill="#F13DA1" transform="translate(547,48)"/>
<path d="M0 0 C0.66 0.33 1.32 0.66 2 1 C-1.465 3.97 -1.465 3.97 -5 7 C-3.92643531 2.70574125 -3.4915227 2.25259529 0 0 Z M-7 7 C-6.34 7.33 -5.68 7.66 -5 8 C-5.639375 8.226875 -6.27875 8.45375 -6.9375 8.6875 C-9.25653741 9.83913693 -9.25653741 9.83913693 -9.6875 12.5 C-9.790625 13.325 -9.89375 14.15 -10 15 C-10.33 15.66 -10.66 16.32 -11 17 C-11.09374144 18.6103296 -11.12373424 20.22454701 -11.12304783 21.83760262 C-11.12503888 22.86570301 -11.12702993 23.89380341 -11.12908131 24.95305836 C-11.12616847 26.09117148 -11.12325563 27.22928459 -11.12025452 28.40188599 C-11.12110894 29.60415923 -11.12196337 30.80643247 -11.12284368 32.04513824 C-11.12421041 35.39270387 -11.12106843 38.74021157 -11.11606562 42.08777022 C-11.11176019 45.6937674 -11.11320761 49.29976269 -11.1139679 52.90576172 C-11.11449307 59.15686597 -11.11134693 65.4079598 -11.10573006 71.65906143 C-11.0976142 80.69718246 -11.09499975 89.73529843 -11.09374207 98.7734227 C-11.09155168 113.43602815 -11.08489196 128.09862804 -11.07543945 142.76123047 C-11.06626499 157.00732394 -11.05918432 171.2534159 -11.05493164 185.49951172 C-11.05466892 186.37716297 -11.05440619 187.25481422 -11.05413551 188.15906097 C-11.0528305 192.56183664 -11.05156679 196.96461232 -11.05032361 201.36738801 C-11.03995141 237.91159593 -11.02233346 274.45579753 -11 311 C-11.66 311 -12.32 311 -13 311 C-13.06864827 273.3934935 -13.12151971 235.78699644 -13.15319599 198.18043997 C-13.15694816 193.74187524 -13.16083112 189.30331064 -13.16479492 184.86474609 C-13.16558185 183.98109798 -13.16636878 183.09744987 -13.16717956 182.18702455 C-13.18023783 167.87416919 -13.203894 153.56134994 -13.23145839 139.24851601 C-13.25950086 124.56510816 -13.27617381 109.88171923 -13.28226548 95.1982857 C-13.28638433 86.13589542 -13.29939911 77.07360718 -13.3237494 68.01124831 C-13.3395923 61.79907086 -13.34440364 55.58694625 -13.34050413 49.37475006 C-13.33858032 45.78921494 -13.34155477 42.20385829 -13.35761642 38.6183548 C-13.37489972 34.73178083 -13.36897081 30.84544003 -13.36076355 26.95883179 C-13.36950207 25.82458814 -13.3782406 24.69034449 -13.38724393 23.52172983 C-13.35550118 17.97880733 -13.29508123 13.70541788 -10 9 C-9.01 8.34 -8.02 7.68 -7 7 Z " fill="#ED1E8B" transform="translate(90,37)"/>
<path d="M0 0 C2.64 0 5.28 0 8 0 C8.33 0.66 8.66 1.32 9 2 C10.64363134 2.72159424 12.31050386 3.39351421 14 4 C14 4.66 14 5.32 14 6 C15.32 6.66 16.64 7.32 18 8 C18 8.66 18 9.32 18 10 C13 8 13 8 3 2 C2.67 62.39 2.34 122.78 2 185 C1.67 185 1.34 185 1 185 C0.67 123.95 0.34 62.9 0 0 Z " fill="#EA4B9E" transform="translate(134,121)"/>
<path d="M0 0 C2.64 0 5.28 0 8 0 C8 0.66 8 1.32 8 2 C91.16 2 174.32 2 260 2 C260 2.33 260 2.66 260 3 C227.59962108 3.0456118 195.19925141 3.08101244 162.79884772 3.10213066 C158.97486653 3.10463211 155.1508854 3.10722075 151.3269043 3.10986328 C150.18496147 3.11065021 150.18496147 3.11065021 149.0199491 3.11145304 C136.68841782 3.12015888 124.35690517 3.13592985 112.02538494 3.15430559 C99.37487314 3.17299965 86.72437109 3.18411568 74.07384604 3.18817699 C66.26595606 3.19092307 58.4581187 3.19960065 50.65024491 3.21583293 C44.6661213 3.22764101 38.6820431 3.22891259 32.69790649 3.22621536 C30.24085351 3.22676685 27.78379858 3.23076177 25.32675743 3.23841095 C21.97845044 3.24832592 18.6303707 3.24598138 15.28205872 3.24050903 C14.30443111 3.24633472 13.3268035 3.2521604 12.31955081 3.25816262 C7.77964867 3.2380358 4.11320343 3.18124101 0 1 C0 0.67 0 0.34 0 0 Z " fill="#F6198B" transform="translate(92,363)"/>
<path d="M0 0 C0 60.39 0 120.78 0 183 C-0.33 183 -0.66 183 -1 183 C-1.33 122.94 -1.66 62.88 -2 1 C-3.32 1.33 -4.64 1.66 -6 2 C-6 1.34 -6 0.68 -6 0 C-4 -1 -4 -1 0 0 Z " fill="#DA4A98" transform="translate(490,123)"/>
<path d="M0 0 C0.66 0.33 1.32 0.66 2 1 C0.03947929 3.94078107 -0.59717777 4.51424356 -3.5625 6 C-7.24594608 7.63623172 -7.24594608 7.63623172 -8 11 C-8.825 11.309375 -9.65 11.61875 -10.5 11.9375 C-11.325 12.288125 -12.15 12.63875 -13 13 C-13.8237956 14.96128755 -13.8237956 14.96128755 -14 17 C-14.33 17.66 -14.66 18.32 -15 19 C-15.10360712 20.44411794 -15.14646145 21.89282465 -15.15821838 23.34060669 C-15.1680072 24.25208466 -15.17779602 25.16356262 -15.18788147 26.10266113 C-15.19363693 27.10535034 -15.1993924 28.10803955 -15.20532227 29.14111328 C-15.21522186 30.19479095 -15.22512146 31.24846863 -15.23532104 32.33407593 C-15.26700001 35.82946498 -15.29171876 39.32486764 -15.31640625 42.8203125 C-15.33697025 45.23884441 -15.35796657 47.65737267 -15.37937927 50.07589722 C-15.43465713 56.45124368 -15.48404118 62.82662288 -15.53222656 69.20202637 C-15.58239992 75.70372441 -15.63810769 82.20537473 -15.69335938 88.70703125 C-15.80101082 101.47131315 -15.90262805 114.23563576 -16 127 C-16.33 127 -16.66 127 -17 127 C-17.14052063 112.83063694 -17.24574193 98.66138284 -17.31087303 84.49146461 C-17.34213843 77.91121825 -17.38452568 71.33144116 -17.45263672 64.75146484 C-17.51799717 58.39719426 -17.55374207 52.04337407 -17.56926346 45.68879318 C-17.58031963 43.26874073 -17.60190997 40.84871195 -17.63438034 38.42885208 C-17.67816302 35.02966985 -17.68392465 31.63233057 -17.68115234 28.23291016 C-17.702724 27.24028168 -17.72429565 26.2476532 -17.746521 25.22494507 C-17.68205304 17.88315531 -15.56830914 12.76053027 -11 7 C-7.56753112 3.87353885 -4.42450367 1.47483456 0 0 Z " fill="#F3419D" transform="translate(93,33)"/>
<path d="M0 0 C1 1 1 1 1.12304783 3.21577549 C1.12166514 4.69663592 1.12166514 4.69663592 1.12025452 6.20741272 C1.12162918 7.33628403 1.12300385 8.46515533 1.12442017 9.62823486 C1.12082489 10.87763855 1.11722961 12.12704224 1.11352539 13.41430664 C1.11367142 14.72143112 1.11381744 16.0285556 1.1139679 17.37528992 C1.11425586 20.97017099 1.10835928 24.56501897 1.10139394 28.15989232 C1.09516026 31.91286252 1.09455659 35.6658334 1.09336853 39.41880798 C1.09025526 46.53030826 1.08204192 53.64179325 1.07201904 60.75328678 C1.06085778 68.84747066 1.05534742 76.94165526 1.05032361 85.03584492 C1.03985931 101.69057225 1.02225994 118.34528418 1 135 C0.67 135 0.34 135 0 135 C-0.33 91.11 -0.66 47.22 -1 2 C-2.65 2 -4.3 2 -6 2 C-6.061875 2.61875 -6.12375 3.2375 -6.1875 3.875 C-7 6 -7 6 -9.5625 7.25 C-10.366875 7.4975 -11.17125 7.745 -12 8 C-12 7.34 -12 6.68 -12 6 C-11.34 6 -10.68 6 -10 6 C-9.67 5.01 -9.34 4.02 -9 3 C-8.34 3 -7.68 3 -7 3 C-7 2.34 -7 1.68 -7 1 C-4.51588385 -0.24205807 -2.74800896 -0.14092354 0 0 Z " fill="#EF2F96" transform="translate(490,121)"/>
<path d="M0 0 C2.64 0 5.28 0 8 0 C8.33 0.66 8.66 1.32 9 2 C10.64363134 2.72159424 12.31050386 3.39351421 14 4 C14 4.66 14 5.32 14 6 C15.32 6.66 16.64 7.32 18 8 C18 8.66 18 9.32 18 10 C13 8 13 8 3 2 C3 10.91 3 19.82 3 29 C2.67 29 2.34 29 2 29 C-0.38222795 19.34346884 -0.19538118 9.86674975 0 0 Z " fill="#F358A8" transform="translate(134,121)"/>
<path d="M0 0 C0.66 0.99 1.32 1.98 2 3 C0.68 3 -0.64 3 -2 3 C-2.33 3.99 -2.66 4.98 -3 6 C-5.4375 8.6875 -5.4375 8.6875 -8 11 C-8.66 11 -9.32 11 -10 11 C-10 11.66 -10 12.32 -10 13 C-12.31 13.33 -14.62 13.66 -17 14 C-17 14.66 -17 15.32 -17 16 C-17.66 16.2475 -18.32 16.495 -19 16.75 C-22.19343778 18.08059907 -25.18998807 19.64773733 -28.23046875 21.29296875 C-28.81441406 21.52628906 -29.39835937 21.75960937 -30 22 C-30.66 21.67 -31.32 21.34 -32 21 C-25.41500671 16.21954814 -18.63064914 11.82667484 -11.7109375 7.55322266 C-7.75389777 5.10842118 -3.85460576 2.60365451 0 0 Z " fill="#F13799" transform="translate(415,96)"/>
<path d="M0 0 C0.33 0 0.66 0 1 0 C1.1493306 5.24686482 1.25767291 10.49246893 1.32958984 15.7409668 C1.35959563 17.52276175 1.40041511 19.30441109 1.45263672 21.08569336 C1.96331955 38.96459926 1.96331955 38.96459926 -3.40771484 45.42602539 C-3.93316895 45.94543701 -4.45862305 46.46484863 -5 47 C-5.51900879 47.5664624 -6.03801758 48.1329248 -6.57275391 48.71655273 C-8 50 -8 50 -10 50 C-10 50.66 -10 51.32 -10 52 C-15.75 55 -15.75 55 -18 55 C-18 54.34 -18 53.68 -18 53 C-17.34 53 -16.68 53 -16 53 C-15.34 51.68 -14.68 50.36 -14 49 C-12.35 49 -10.7 49 -9 49 C-8.34 47.02 -7.68 45.04 -7 43 C-6.34 43 -5.68 43 -5 43 C-4.67 41.68 -4.34 40.36 -4 39 C-3.34 39 -2.68 39 -2 39 C-2 38.01 -2 37.02 -2 36 C-1.34 36 -0.68 36 0 36 C0 24.12 0 12.24 0 0 Z " fill="#EF45A3" transform="translate(548,312)"/>
<path d="M0 0 C7.20822151 -0.05063235 14.4163973 -0.08570496 21.62475586 -0.10986328 C24.07789829 -0.11993245 26.53102869 -0.13358861 28.98413086 -0.15087891 C32.50637783 -0.17508679 36.02846639 -0.18647388 39.55078125 -0.1953125 C41.20089958 -0.21079636 41.20089958 -0.21079636 42.88435364 -0.22659302 C44.41560127 -0.22681961 44.41560127 -0.22681961 45.9777832 -0.22705078 C46.87713089 -0.231492 47.77647858 -0.23593323 48.70307922 -0.24050903 C51 0 51 0 54 2 C54 2.99 54 3.98 54 5 C52.35 5 50.7 5 49 5 C49 4.34 49 3.68 49 3 C48.27296875 3.01160156 47.5459375 3.02320312 46.796875 3.03515625 C45.79140625 3.04417969 44.7859375 3.05320312 43.75 3.0625 C42.28820312 3.07990234 42.28820312 3.07990234 40.796875 3.09765625 C37.63644786 3.01636954 34.55277363 2.80920503 31.40625 2.53125 C24.85907886 1.95712443 18.3169107 1.67397081 11.75 1.4375 C10.61175781 1.39431641 9.47351563 1.35113281 8.30078125 1.30664062 C5.53393504 1.20201199 2.76702274 1.0998311 0 1 C0 0.67 0 0.34 0 0 Z " fill="#EF369A" transform="translate(367,91)"/>
<path d="M0 0 C5.00356881 2.23843868 9.10496429 5.22066948 13.4375 8.57421875 C16.58623555 10.32618289 18.44422541 10.44091605 22 10 C24.14038088 8.9821595 24.14038088 8.9821595 25.875 7.5 C26.47054688 7.0359375 27.06609375 6.571875 27.6796875 6.09375 C28.11539062 5.7328125 28.55109375 5.371875 29 5 C29.66 5.33 30.32 5.66 31 6 C31 6.99 31 7.98 31 9 C29.35 9.33 27.7 9.66 26 10 C25.67 10.99 25.34 11.98 25 13 C21.84017111 14.57991444 19.49944139 14.34420735 16 14 C14.02346224 12.88036614 12.33316645 11.63070426 10.578125 10.19140625 C8.89201167 8.78665679 8.89201167 8.78665679 6 8 C5.67 7.01 5.34 6.02 5 5 C3.34051852 3.98812105 1.67419438 2.9873454 0 2 C0 1.34 0 0.68 0 0 Z " fill="#F158A8" transform="translate(294,151)"/>
<path d="M0 0 C15.84 0 31.68 0 48 0 C48 0.66 48 1.32 48 2 C49.258125 2.0825 50.51625 2.165 51.8125 2.25 C53.95703125 2.390625 53.95703125 2.390625 56 3 C56.99 4.32 57.98 5.64 59 7 C55.37 6.34 51.74 5.68 48 5 C48 4.34 48 3.68 48 3 C47.34 3 46.68 3 46 3 C46 2.34 46 1.68 46 1 C30.82 1 15.64 1 0 1 C0 0.67 0 0.34 0 0 Z " fill="#E5238C" transform="translate(482,33)"/>
<path d="M0 0 C1.32 0.33 2.64 0.66 4 1 C1.98553185 2.30258843 -0.03568613 3.5918692 -2.0625 4.875 C-2.62388672 5.23980469 -3.18527344 5.60460937 -3.76367188 5.98046875 C-9.8246308 9.79021436 -15.78156007 11.6117322 -23 11 C-26.41140009 10.2143135 -29.76604162 9.35058032 -33 8 C-33.33 7.34 -33.66 6.68 -34 6 C-31.69 6.33 -29.38 6.66 -27 7 C-27 7.66 -27 8.32 -27 9 C-22.38 9 -17.76 9 -13 9 C-13 8.01 -13 7.02 -13 6 C-11.58398286 5.51891725 -10.16715563 5.04021859 -8.75 4.5625 C-7.96109375 4.29566406 -7.1721875 4.02882812 -6.359375 3.75390625 C-4.25178012 3.08045292 -2.15246027 2.50849405 0 2 C0 1.34 0 0.68 0 0 Z " fill="#F153A1" transform="translate(333,220)"/>
<path d="M0 0 C-0.845625 0.51949219 -1.69125 1.03898438 -2.5625 1.57421875 C-3.10865967 1.91001953 -3.65481934 2.24582031 -4.2175293 2.59179688 C-5.4087866 3.32407503 -6.60035736 4.05584349 -7.79223633 4.78710938 C-11.11181611 6.82658385 -14.40796352 8.89648954 -17.6875 11 C-21 13 -21 13 -23 13 C-23 13.66 -23 14.32 -23 15 C-23.99 15 -24.98 15 -26 15 C-26 13.68 -26 12.36 -26 11 C-25.05125 10.54625 -24.1025 10.0925 -23.125 9.625 C-19.99686321 8.19761746 -19.99686321 8.19761746 -18 6 C-15.67724823 5.59952556 -13.34260643 5.2602896 -11 5 C-11 4.34 -11 3.68 -11 3 C-10.01 3 -9.02 3 -8 3 C-8 2.01 -8 1.02 -8 0 C-4.90645403 -0.99435406 -3.09720845 -0.87840996 0 0 Z " fill="#F1479F" transform="translate(398,182)"/>
<path d="M0 0 C0.66 0.33 1.32 0.66 2 1 C0.03947929 3.94078107 -0.59717777 4.51424356 -3.5625 6 C-7.24594608 7.63623172 -7.24594608 7.63623172 -8 11 C-8.825 11.309375 -9.65 11.61875 -10.5 11.9375 C-11.325 12.288125 -12.15 12.63875 -13 13 C-13.8237956 14.96128755 -13.8237956 14.96128755 -14 17 C-14.33 17.66 -14.66 18.32 -15 19 C-15.66 19 -16.32 19 -17 19 C-14.59424293 10.57985024 -10.2935732 5.59779666 -3 1 C-2.01 0.67 -1.02 0.34 0 0 Z " fill="#F177B8" transform="translate(93,33)"/>
<path d="M0 0 C1.32 0.33 2.64 0.66 4 1 C-15.61702128 15 -15.61702128 15 -19 15 C-19 14.34 -19 13.68 -19 13 C-18.34 12.67 -17.68 12.34 -17 12 C-16.34 11.01 -15.68 10.02 -15 9 C-13.33927151 8.31867549 -11.672233 7.65257873 -10 7 C-9.2265625 6.195625 -9.2265625 6.195625 -8.4375 5.375 C-7 4 -7 4 -3 4 C-3 3.34 -3 2.68 -3 2 C-2.01 2 -1.02 2 0 2 C0 1.34 0 0.68 0 0 Z " fill="#F04DA7" transform="translate(439,151)"/>
<path d="M0 0 C1.98 0 3.96 0 6 0 C2.44831207 2.75945679 -1.28428734 5.19250587 -5.0625 7.625 C-5.68705078 8.03234375 -6.31160156 8.4396875 -6.95507812 8.859375 C-9.61747873 10.57558628 -11.98173244 11.99391081 -15 13 C-15 12.01 -15 11.02 -15 10 C-14.34 10 -13.68 10 -13 10 C-13 9.34 -13 8.68 -13 8 C-11.35 7.67 -9.7 7.34 -8 7 C-8.66 6.01 -9.32 5.02 -10 4 C-6.71023192 2.90341064 -5.28696233 3.20046862 -2 4 C-1.34 2.68 -0.68 1.36 0 0 Z " fill="#F33E9B" transform="translate(352,207)"/>
<path d="M0 0 C0 12.21 0 24.42 0 37 C-0.33 37 -0.66 37 -1 37 C-1.33 25.12 -1.66 13.24 -2 1 C-3.32 1.33 -4.64 1.66 -6 2 C-6 1.34 -6 0.68 -6 0 C-4 -1 -4 -1 0 0 Z " fill="#EC6BB5" transform="translate(490,123)"/>
<path d="M0 0 C0.86625 0.7115625 0.86625 0.7115625 1.75 1.4375 C3.92582084 2.9484867 5.42602448 3.54036151 8 4 C8 4.99 8 5.98 8 7 C10.475 7.99 10.475 7.99 13 9 C13 9.66 13 10.32 13 11 C14.32 11 15.64 11 17 11 C17 11.99 17 12.98 17 14 C12.20178341 12.37885498 8.3327141 9.70723241 4.1875 6.875 C3.49462891 6.40707031 2.80175781 5.93914062 2.08789062 5.45703125 C0.38908895 4.30887563 -1.30584864 3.15500633 -3 2 C-2.01 1.34 -1.02 0.68 0 0 Z " fill="#ED4A99" transform="translate(221,173)"/>
<path d="M0 0 C1.27875 0.103125 2.5575 0.20625 3.875 0.3125 C4.95394531 0.39951172 4.95394531 0.39951172 6.0546875 0.48828125 C8 1 8 1 10 4 C10.99 4.33 11.98 4.66 13 5 C13.33 5.99 13.66 6.98 14 8 C16.01508358 8.73323796 16.01508358 8.73323796 18 9 C17.67 9.99 17.34 10.98 17 12 C11.04613442 8.76420349 5.38220892 5.12599919 0 1 C0 0.67 0 0.34 0 0 Z " fill="#EE4CA0" transform="translate(183,151)"/>
<path d="M0 0 C6.6 0 13.2 0 20 0 C20 0.33 20 0.66 20 1 C14.72 1.66 9.44 2.32 4 3 C4.99 4.485 4.99 4.485 6 6 C4.68 6 3.36 6 2 6 C2 5.34 2 4.68 2 4 C1.34 4 0.68 4 0 4 C0 2.68 0 1.36 0 0 Z " fill="#F948A8" transform="translate(206,92)"/>
<path d="M0 0 C1 1 1 1 1.11352539 2.85766602 C1.10828857 3.64842529 1.10305176 4.43918457 1.09765625 5.25390625 C1.09443359 6.10791016 1.09121094 6.96191406 1.08789062 7.84179688 C1.07951172 8.73962891 1.07113281 9.63746094 1.0625 10.5625 C1.05798828 11.46419922 1.05347656 12.36589844 1.04882812 13.29492188 C1.03700225 15.53001314 1.0205222 17.76497437 1 20 C0.67 20 0.34 20 0 20 C-0.33 14.06 -0.66 8.12 -1 2 C-2.65 2 -4.3 2 -6 2 C-6.061875 2.61875 -6.12375 3.2375 -6.1875 3.875 C-7 6 -7 6 -9.5625 7.25 C-10.366875 7.4975 -11.17125 7.745 -12 8 C-12 7.34 -12 6.68 -12 6 C-11.34 6 -10.68 6 -10 6 C-9.67 5.01 -9.34 4.02 -9 3 C-8.34 3 -7.68 3 -7 3 C-7 2.34 -7 1.68 -7 1 C-4.51588385 -0.24205807 -2.74800896 -0.14092354 0 0 Z " fill="#F03F9D" transform="translate(490,121)"/>
<path d="M0 0 C10.74259681 5.0022779 10.74259681 5.0022779 14 9 C12.35 9 10.7 9 9 9 C8.67 8.01 8.34 7.02 8 6 C5.69 6 3.38 6 1 6 C0.67 4.02 0.34 2.04 0 0 Z " fill="#F03C9D" transform="translate(232,111)"/>
<path d="M0 0 C-2.30193899 2.46477712 -4.75988654 4.31755197 -7.5625 6.1875 C-8.34753906 6.71730469 -9.13257813 7.24710938 -9.94140625 7.79296875 C-12 9 -12 9 -14 9 C-14 8.01 -14 7.02 -14 6 C-13.34 6 -12.68 6 -12 6 C-12 5.34 -12 4.68 -12 4 C-11.01 4 -10.02 4 -9 4 C-9 3.34 -9 2.68 -9 2 C-5.5647952 -0.29013653 -4.014669 -0.17842973 0 0 Z " fill="#EF3796" transform="translate(462,139)"/>
<path d="M0 0 C1.32 0.33 2.64 0.66 4 1 C4 1.66 4 2.32 4 3 C4.71542969 3.26554687 5.43085938 3.53109375 6.16796875 3.8046875 C9.06904319 5.02914099 11.63015864 6.47983063 14.3125 8.125 C15.19550781 8.66382813 16.07851563 9.20265625 16.98828125 9.7578125 C17.98408203 10.37269531 17.98408203 10.37269531 19 11 C18.67 11.66 18.34 12.32 18 13 C15.69 12.34 13.38 11.68 11 11 C11 10.01 11 9.02 11 8 C8.03 7.505 8.03 7.505 5 7 C5 6.34 5 5.68 5 5 C4.34 5 3.68 5 3 5 C3 4.01 3 3.02 3 2 C2.01 2 1.02 2 0 2 C0 1.34 0 0.68 0 0 Z " fill="#F05AA5" transform="translate(246,120)"/>
<path d="M0 0 C1.32 0 2.64 0 4 0 C4 0.66 4 1.32 4 2 C6.97 2.495 6.97 2.495 10 3 C10 3.66 10 4.32 10 5 C10.78375 5.2475 11.5675 5.495 12.375 5.75 C15.32317108 7.15389099 15.9024777 8.00675737 17 11 C13.34426939 9.62992438 10.04532353 7.98982135 6.6875 6 C5.80449219 5.484375 4.92148437 4.96875 4.01171875 4.4375 C3.34785156 3.963125 2.68398438 3.48875 2 3 C2 2.34 2 1.68 2 1 C1.34 0.67 0.68 0.34 0 0 Z " fill="#EF549F" transform="translate(280,214)"/>
<path d="M0 0 C0.66 0.33 1.32 0.66 2 1 C2 1.99 2 2.98 2 4 C0.35 4.33 -1.3 4.66 -3 5 C-3.33 5.99 -3.66 6.98 -4 8 C-7.04983996 9.52491998 -9.6423369 9.23562548 -13 9 C-14.9375 7.5 -14.9375 7.5 -16 6 C-14.7625 6.2475 -13.525 6.495 -12.25 6.75 C-10.0680628 7.07956205 -10.0680628 7.07956205 -8 7 C-5.66666667 5.33333333 -5.66666667 5.33333333 -4 3 C-2.68441297 1.97676564 -1.35622245 0.96873032 0 0 Z " fill="#F11E8A" transform="translate(323,156)"/>
<path d="M0 0 C0.66 0.33 1.32 0.66 2 1 C1.02728147 3.65286872 0.4782268 4.77495209 -2.125 6 C-3.548125 6.495 -3.548125 6.495 -5 7 C-7.09154913 8.07186875 -9.1634895 9.1745077 -11.23046875 10.29296875 C-11.81441406 10.52628906 -12.39835937 10.75960937 -13 11 C-13.66 10.67 -14.32 10.34 -15 10 C-13.43902526 8.8936781 -11.87614673 7.79004215 -10.3125 6.6875 C-9.44238281 6.07261719 -8.57226562 5.45773438 -7.67578125 4.82421875 C-2.63127561 1.38511783 -2.63127561 1.38511783 0 0 Z " fill="#EF5BA9" transform="translate(398,107)"/>
<path d="M0 0 C2.97 0.495 2.97 0.495 6 1 C6.33 1.99 6.66 2.98 7 4 C8.65 4 10.3 4 12 4 C12.268125 4.598125 12.53625 5.19625 12.8125 5.8125 C13.98493467 7.97224808 15.19369282 9.35790256 17 11 C13.09544063 9.57497833 9.75164038 7.73347873 6.25 5.5 C5.28578125 4.8915625 4.3215625 4.283125 3.328125 3.65625 C1 2 1 2 0 0 Z " fill="#F359A9" transform="translate(246,192)"/>
<path d="M0 0 C8.08528322 1.88656609 11.83790882 3.4039946 17 10 C12.79673379 10 10.20405841 7.80426228 6.8125 5.5625 C6.15830078 5.14162109 5.50410156 4.72074219 4.83007812 4.28710938 C3.19849463 3.22377289 1.5963438 2.11554276 0 1 C0 0.67 0 0.34 0 0 Z " fill="#F050A0" transform="translate(201,163)"/>
<path d="M0 0 C2.475 0.495 2.475 0.495 5 1 C5.33 1.99 5.66 2.98 6 4 C8.31 4.33 10.62 4.66 13 5 C13.33 5.99 13.66 6.98 14 8 C15.49985609 9.66710346 15.49985609 9.66710346 17 11 C13.09544063 9.57497833 9.75164038 7.73347873 6.25 5.5 C5.28578125 4.8915625 4.3215625 4.283125 3.328125 3.65625 C1 2 1 2 0 0 Z " fill="#F369B1" transform="translate(263,203)"/>
<path d="M0 0 C3.63970867 -0.42820102 5.04569463 0.02586488 8.3125 1.875 C9.199375 2.57625 10.08625 3.2775 11 4 C11 4.66 11 5.32 11 6 C11.99 6.33 12.98 6.66 14 7 C12.68 7.33 11.36 7.66 10 8 C10 7.34 10 6.68 10 6 C9.278125 5.938125 8.55625 5.87625 7.8125 5.8125 C4.15342375 4.75543353 2.50788398 2.79449929 0 0 Z " fill="#F04FA5" transform="translate(280,144)"/>
<path d="M0 0 C0.66 0.33 1.32 0.66 2 1 C1.67 1.99 1.34 2.98 1 4 C-0.65 4.33 -2.3 4.66 -4 5 C-4.33 5.99 -4.66 6.98 -5 8 C-5.804375 8.12375 -6.60875 8.2475 -7.4375 8.375 C-8.283125 8.58125 -9.12875 8.7875 -10 9 C-10.33 9.66 -10.66 10.32 -11 11 C-12.32 10.67 -13.64 10.34 -15 10 C-10.05 6.7 -5.1 3.4 0 0 Z " fill="#F261AC" transform="translate(372,124)"/>
<path d="M0 0 C0 3 0 3 -1.375 4.6875 C-3 6 -3 6 -5 6 C-5 6.66 -5 7.32 -5 8 C-10.75 11 -10.75 11 -13 11 C-13 10.34 -13 9.68 -13 9 C-12.34 9 -11.68 9 -11 9 C-10.34 7.68 -9.68 6.36 -9 5 C-7.35 5 -5.7 5 -4 5 C-4 4.34 -4 3.68 -4 3 C-2 1.375 -2 1.375 0 0 Z " fill="#F261AE" transform="translate(543,356)"/>
<path d="M0 0 C1.32 0.33 2.64 0.66 4 1 C-6.18906606 7.70387244 -6.18906606 7.70387244 -13 8 C-13 7.34 -13 6.68 -13 6 C-11.58398286 5.51891725 -10.16715563 5.04021859 -8.75 4.5625 C-7.96109375 4.29566406 -7.1721875 4.02882812 -6.359375 3.75390625 C-4.25178012 3.08045292 -2.15246027 2.50849405 0 2 C0 1.34 0 0.68 0 0 Z " fill="#F33E9A" transform="translate(333,220)"/>
<path d="M0 0 C-0.66 0.66 -1.32 1.32 -2 2 C-2.99 2 -3.98 2 -5 2 C-5 2.66 -5 3.32 -5 4 C-7.8125 6.1875 -7.8125 6.1875 -11 8 C-11.99 7.67 -12.98 7.34 -14 7 C-13.67 6.34 -13.34 5.68 -13 5 C-11.68 5 -10.36 5 -9 5 C-8.95875 4.38125 -8.9175 3.7625 -8.875 3.125 C-8 1 -8 1 -5.0625 -0.3125 C-2 -1 -2 -1 0 0 Z " fill="#F25DA5" transform="translate(372,198)"/>
<path d="M0 0 C2.97 0 5.94 0 9 0 C11 4 11 4 12 7 C7.69235185 5.43358249 3.93828536 3.31663844 0 1 C0 0.67 0 0.34 0 0 Z " fill="#F35BAC" transform="translate(171,144)"/>
<path d="M0 0 C1.60520004 0.06023265 3.20934327 0.14908599 4.8125 0.25 C6.15248047 0.31960937 6.15248047 0.31960937 7.51953125 0.390625 C10 1 10 1 13 5 C9.37 4.34 5.74 3.68 2 3 C2 2.34 2 1.68 2 1 C1.34 0.67 0.68 0.34 0 0 Z " fill="#F43F9D" transform="translate(528,35)"/>
<path d="M0 0 C0.66 0.33 1.32 0.66 2 1 C1.04735876 5.19162145 0.36739592 6.7207791 -3.125 9.375 C-4.07375 9.91125 -5.0225 10.4475 -6 11 C-5.67 9.68 -5.34 8.36 -5 7 C-4.34 7 -3.68 7 -3 7 C-2.67 5.68 -2.34 4.36 -2 3 C-1.34 3 -0.68 3 0 3 C0 2.01 0 1.02 0 0 Z " fill="#EA3C96" transform="translate(546,348)"/>
<path d="M0 0 C-0.57344937 2.86724686 -0.8614515 3.8614515 -3 6 C-6.125 6.125 -6.125 6.125 -9 6 C-3.28571429 0 -3.28571429 0 0 0 Z " fill="#F2489F" transform="translate(348,141)"/>
<path d="M0 0 C0.99 0 1.98 0 3 0 C3 0.66 3 1.32 3 2 C3.969375 2.28875 4.93875 2.5775 5.9375 2.875 C9 4 9 4 10 6 C5.545 5.01 5.545 5.01 1 4 C0.67 2.68 0.34 1.36 0 0 Z " fill="#EF52A5" transform="translate(265,133)"/>
<path d="M0 0 C-3.63 1.98 -7.26 3.96 -11 6 C-11 5.01 -11 4.02 -11 3 C-10.01 3 -9.02 3 -8 3 C-8 2.01 -8 1.02 -8 0 C-4.63458162 -1.08174162 -3.70152678 -0.92538169 0 0 Z " fill="#F65BA8" transform="translate(398,182)"/>
<path d="M0 0 C-2.97 1.65 -5.94 3.3 -9 5 C-9.33 3.68 -9.66 2.36 -10 1 C-5.8922935 -0.58706842 -4.40767604 -1.10191901 0 0 Z " fill="#F151A7" transform="translate(407,176)"/>
<path d="M0 0 C0.66 0.33 1.32 0.66 2 1 C1.67 1.66 1.34 2.32 1 3 C0.01 3 -0.98 3 -2 3 C-2.20625 3.639375 -2.4125 4.27875 -2.625 4.9375 C-4 7 -4 7 -7.125 7.75 C-8.548125 7.87375 -8.548125 7.87375 -10 8 C-6.97727468 4.74475735 -3.74281699 2.38179263 0 0 Z " fill="#F358A6" transform="translate(337,147)"/>
<path d="M0 0 C3.75376152 1.25125384 4.24073289 2.5652404 6 6 C6 6.66 6 7.32 6 8 C5.01 8 4.02 8 3 8 C0.19744677 5.0936485 0 4.21174952 0 0 Z " fill="#F068B3" transform="translate(541,40)"/>
<path d="M0 0 C1.32 0.33 2.64 0.66 4 1 C0.53258866 3.95749791 -2.86873527 6.07848152 -7 8 C-6.875 6.125 -6.875 6.125 -6 4 C-2.9375 2.75 -2.9375 2.75 0 2 C0 1.34 0 0.68 0 0 Z " fill="#F35FAA" transform="translate(416,166)"/>
<path d="M0 0 C0.99 0.33 1.98 0.66 3 1 C3 1.66 3 2.32 3 3 C-2.41176471 7 -2.41176471 7 -5 7 C-5 6.34 -5 5.68 -5 5 C-4.34 4.67 -3.68 4.34 -3 4 C-2.34 3.01 -1.68 2.02 -1 1 C-0.67 0.67 -0.34 0.34 0 0 Z " fill="#F2489A" transform="translate(425,159)"/>
<path d="M0 0 C0 3 0 3 -2 6 C-5.125 6.1875 -5.125 6.1875 -8 6 C-5.63379989 3.38472619 -3.057952 1.73559438 0 0 Z " fill="#F14FA5" transform="translate(356,135)"/>
<path d="M0 0 C3.72433382 1.2125738 7.37802806 2.50859979 11 4 C11 4.99 11 5.98 11 7 C9.02 6.34 7.04 5.68 5 5 C5 4.34 5 3.68 5 3 C4.360625 2.87625 3.72125 2.7525 3.0625 2.625 C2.381875 2.41875 1.70125 2.2125 1 2 C0.67 1.34 0.34 0.68 0 0 Z " fill="#F166AE" transform="translate(160,136)"/>
<path d="M0 0 C3.96 0 7.92 0 12 0 C12 0.33 12 0.66 12 1 C8.7 1.33 5.4 1.66 2 2 C2.99 3.485 2.99 3.485 4 5 C2.68 5 1.36 5 0 5 C0 3.35 0 1.7 0 0 Z " fill="#F673BC" transform="translate(208,93)"/>
<path d="M0 0 C-1.125 1.5 -1.125 1.5 -3 3 C-6.1875 3.1875 -6.1875 3.1875 -9 3 C-7 0 -7 0 -5.0625 -0.75 C-3 -1 -3 -1 0 0 Z " fill="#EE3A9A" transform="translate(387,188)"/>
<path d="M0 0 C0 0.66 0 1.32 0 2 C-5.29411765 6 -5.29411765 6 -9 6 C-9 5.01 -9 4.02 -9 3 C-8.01 3 -7.02 3 -6 3 C-5.67 2.34 -5.34 1.68 -5 1 C-2 0 -2 0 0 0 Z " fill="#F373B9" transform="translate(471,133)"/>
<path d="M0 0 C1.32 0 2.64 0 4 0 C4 0.66 4 1.32 4 2 C5.65 2.33 7.3 2.66 9 3 C9.33 3.99 9.66 4.98 10 6 C6.00499382 4.6302836 3.19990508 2.74277578 0 0 Z " fill="#F368B6" transform="translate(142,125)"/>
<path d="M0 0 C1.98 0 3.96 0 6 0 C4.625 1.5 4.625 1.5 3 3 C2.34 3 1.68 3 1 3 C1 3.66 1 4.32 1 5 C-0.32 4.67 -1.64 4.34 -3 4 C-2.67 3.34 -2.34 2.68 -2 2 C-1.34 2 -0.68 2 0 2 C0 1.34 0 0.68 0 0 Z " fill="#F0258F" transform="translate(357,202)"/>
<path d="M0 0 C2.31 0.33 4.62 0.66 7 1 C7.33 2.32 7.66 3.64 8 5 C4.62496331 3.8141763 2.35277269 2.72426311 0 0 Z " fill="#EF53A1" transform="translate(238,187)"/>
<path d="M0 0 C4.875 4.75 4.875 4.75 6 7 C2.88801935 5.50163895 -0.0534615 3.80066242 -3 2 C-2.01 1.34 -1.02 0.68 0 0 Z " fill="#F35AAE" transform="translate(221,173)"/>
<path d="M0 0 C0.66 0.33 1.32 0.66 2 1 C2 1.99 2 2.98 2 4 C-0.97 4.66 -3.94 5.32 -7 6 C-4.71658281 3.71658281 -2.59070454 1.87602742 0 0 Z " fill="#F45BA7" transform="translate(323,156)"/>
<path d="M0 0 C0.99 0.33 1.98 0.66 3 1 C1.87926138 1.83905565 0.75325453 2.67107831 -0.375 3.5 C-1.00148438 3.9640625 -1.62796875 4.428125 -2.2734375 4.90625 C-4 6 -4 6 -6 6 C-6 5.01 -6 4.02 -6 3 C-4.02 2.67 -2.04 2.34 0 2 C0 1.34 0 0.68 0 0 Z " fill="#ED59A5" transform="translate(454,142)"/>
<path d="M0 0 C0.66 0.33 1.32 0.66 2 1 C1.01 2.485 1.01 2.485 0 4 C-0.99 4 -1.98 4 -3 4 C-3 4.66 -3 5.32 -3 6 C-4.32 5.67 -5.64 5.34 -7 5 C-4.69 3.35 -2.38 1.7 0 0 Z " fill="#F362AD" transform="translate(381,118)"/>
<path d="M0 0 C0.66 0.33 1.32 0.66 2 1 C1.01 2.485 1.01 2.485 0 4 C-0.99 4 -1.98 4 -3 4 C-3 4.66 -3 5.32 -3 6 C-4.32 5.67 -5.64 5.34 -7 5 C-4.69 3.35 -2.38 1.7 0 0 Z " fill="#F361AC" transform="translate(407,101)"/>
<path d="M0 0 C1.4540625 0.0309375 1.4540625 0.0309375 2.9375 0.0625 C0.37758376 2.07386276 -2.10840299 3.69095496 -5.0625 5.0625 C-3.9375 0.08035714 -3.9375 0.08035714 0 0 Z " fill="#F362AA" transform="translate(355.0625,206.9375)"/>
<path d="M0 0 C1.32 0 2.64 0 4 0 C4 0.66 4 1.32 4 2 C4.99 2.33 5.98 2.66 7 3 C7 3.66 7 4.32 7 5 C5.0625 4.6875 5.0625 4.6875 3 4 C2.67 3.01 2.34 2.02 2 1 C1.34 0.67 0.68 0.34 0 0 Z " fill="#F0208A" transform="translate(214,169)"/>
<path d="M0 0 C2.475 0.495 2.475 0.495 5 1 C5 1.66 5 2.32 5 3 C6.32 3.66 7.64 4.32 9 5 C4.98525763 5 3.18024863 3.33218233 0 1 C0 0.67 0 0.34 0 0 Z " fill="#F35DAA" transform="translate(183,151)"/>
<path d="M0 0 C1.485 0.99 1.485 0.99 3 2 C3 3.32 3 4.64 3 6 C1.68 6 0.36 6 -1 6 C-0.67 4.02 -0.34 2.04 0 0 Z " fill="#F11F8F" transform="translate(172,138)"/>
<path d="M0 0 C3.465 1.98 3.465 1.98 7 4 C7 4.33 7 4.66 7 5 C5.35 5 3.7 5 2 5 C1.34 3.35 0.68 1.7 0 0 Z " fill="#F166B0" transform="translate(239,115)"/>
<path d="M0 0 C3.28212246 0.43761633 4.84832931 1.52557871 7 4 C1.25 3.25 1.25 3.25 -1 1 C-0.67 0.67 -0.34 0.34 0 0 Z " fill="#EF5FAC" transform="translate(225,107)"/>
</svg>
