<?xml version="1.0" encoding="UTF-8"?>
<svg version="1.1" xmlns="http://www.w3.org/2000/svg" width="512" height="456">
<path d="M0 0 C0.96164062 0.67675781 1.92328125 1.35351562 2.9140625 2.05078125 C36.31873852 26.34901459 58.06907491 61.24737863 64.6796875 102.05859375 C73.07668522 159.40510863 47.9804466 215.89922947 23 266 C22.52626953 266.95148926 22.05253906 267.90297852 21.56445312 268.88330078 C13.46276079 285.03945337 4.37230201 300.5588066 -5 316 C-5.57927246 316.95712891 -6.15854492 317.91425781 -6.75537109 318.90039062 C-22.74034571 345.24625775 -40.29340242 370.53607323 -58.70996094 395.23266602 C-59.84831563 396.79219471 -60.92898594 398.39347891 -62 400 C-63.80566406 400.44824219 -63.80566406 400.44824219 -66.015625 400.546875 C-67.25832153 400.6094751 -67.25832153 400.6094751 -68.52612305 400.67333984 C-69.42500244 400.6986377 -70.32388184 400.72393555 -71.25 400.75 C-72.1778833 400.77658691 -73.1057666 400.80317383 -74.06176758 400.83056641 C-76.03203134 400.87650563 -78.00253825 400.91285082 -79.97314453 400.94042969 C-81.97750295 400.97987665 -83.98151955 401.04786333 -85.98388672 401.14550781 C-102.04182452 401.92700652 -102.04182452 401.92700652 -106.8324585 398.80630493 C-110.42134956 395.39889046 -112.65530786 391.31525785 -115 387 C-116.05814128 385.52522699 -117.14031786 384.06704183 -118.2578125 382.63671875 C-127.22681495 370.34988968 -135.64167847 357.70716589 -144 345 C-144.97786002 343.52343448 -145.95572413 342.04687167 -146.93359375 340.5703125 C-159.85506956 320.94469864 -171.65867389 300.57166154 -183 280 C-183.43618652 279.21028809 -183.87237305 278.42057617 -184.32177734 277.60693359 C-213.72534183 224.01564159 -245.42771469 153.42115868 -230 91 C-229.72591309 89.85289551 -229.72591309 89.85289551 -229.44628906 88.68261719 C-224.52921142 68.76401202 -215.76286635 50.07175763 -203 34 C-202.35804688 33.13890625 -201.71609375 32.2778125 -201.0546875 31.390625 C-177.97041095 1.06232861 -142.66228337 -18.39501419 -105.1875 -23.8125 C-68.65531487 -28.540494 -30.434792 -21.43230848 0 0 Z M-121 39 C-121.85851562 39.36867188 -122.71703125 39.73734375 -123.6015625 40.1171875 C-130.77887145 43.42102813 -136.82602776 48.1184576 -143 53 C-143.87269531 53.67675781 -144.74539062 54.35351562 -145.64453125 55.05078125 C-162.66555973 69.13617629 -172.81486075 92.39443562 -175 114 C-176.36975686 138.62708695 -169.56866073 162.77623801 -153.26171875 181.51953125 C-152.51535156 182.33808594 -151.76898438 183.15664062 -151 184 C-150.32582031 184.76699219 -149.65164062 185.53398437 -148.95703125 186.32421875 C-132.11124308 204.43423118 -108.27367423 212.83908515 -84 214 C-58.48155546 214.2427759 -35.8602031 203.10380589 -17.5 185.9375 C-1.68337552 169.70022061 8.27616472 146.3052225 8 123.60546875 C7.13552591 96.2226679 -2.72445506 73.99690712 -22.1796875 54.85546875 C-39.90169331 38.36328185 -62.89566647 30.57052089 -86.86328125 30.78515625 C-98.83821077 31.24540062 -110.0765581 34.10934371 -121 39 Z " fill="#F65AA3" transform="translate(340,56)"/>
</svg>
