<?xml version="1.0" encoding="UTF-8"?>
<svg version="1.1" xmlns="http://www.w3.org/2000/svg" width="512" height="451">
<path d="M0 0 C3.41414906 2.25703411 6.53867958 4.73788384 9.6953125 7.3359375 C16.98582981 13.31627489 25.17380642 17.26786397 33.875 20.75 C34.56940186 21.03190186 35.26380371 21.31380371 35.97924805 21.60424805 C47.65905545 26.07103747 59.36842702 27.53883479 71.8125 27.4375 C73.12549072 27.42992676 74.43848145 27.42235352 75.79125977 27.41455078 C85.74052489 27.24609631 94.59698925 26.21444776 104 23 C104.62825684 22.79101074 105.25651367 22.58202148 105.90380859 22.36669922 C118.17435288 18.20164033 129.60591284 11.96846483 139.375 3.4375 C143.04030203 0.45718884 145.6515951 -1.32783008 150.46875 -0.8359375 C178.45382504 8.40604716 202.32480607 41.00459101 215 66 C219.27960339 74.50309499 222.55860011 83.1826838 225.25 92.3125 C225.48420654 93.09262451 225.71841309 93.87274902 225.9597168 94.67651367 C230.58563727 111.23130474 231.43765913 127.72824187 231.328125 144.8203125 C231.32505836 146.94310369 231.32318913 149.06589691 231.32244873 151.18869019 C231.31789194 155.59055538 231.30363157 159.99223288 231.28125 164.39404297 C231.2526558 170.04664267 231.24200218 175.69909756 231.2375679 181.35176277 C231.23342734 185.71301728 231.22362644 190.07424243 231.21169281 194.43548203 C231.20598909 196.52238608 231.20123072 198.60929294 231.19742584 200.69620132 C231.19059594 203.58934862 231.17698767 206.48237819 231.16113281 209.37548828 C231.16001495 210.23971405 231.15889709 211.10393982 231.15774536 211.99435425 C231.11471205 217.88528795 231.11471205 217.88528795 230 219 C228.317223 219.09814344 226.6302929 219.12555578 224.94465637 219.12584114 C223.29146534 219.12975276 223.29146534 219.12975276 221.60487652 219.13374341 C220.37893182 219.13151268 219.15298712 219.12928196 217.88989258 219.12698364 C216.59934117 219.12854363 215.30878977 219.13010362 213.97913074 219.13171089 C210.38041466 219.13590871 206.78172489 219.13381149 203.18300867 219.13072467 C199.30839511 219.12847262 195.43378623 219.1319492 191.55917358 219.13470459 C183.96226878 219.13916338 176.36537382 219.13818534 168.76846862 219.13529195 C162.59716063 219.13303834 156.4258554 219.13272521 150.25454712 219.13381577 C149.37795718 219.133969 148.50136724 219.13412223 147.59821397 219.13428011 C145.81772923 219.13459982 144.0372445 219.13492403 142.25675976 219.1352527 C125.54066934 219.13810781 108.8245844 219.13481998 92.10849488 219.12945233 C77.74908499 219.12498427 63.38968318 219.12576019 49.03027344 219.13037109 C32.37612493 219.13571631 15.72198123 219.13783312 -0.93216801 219.13475883 C-2.70629438 219.13444026 -4.48042075 219.13412589 -6.25454712 219.13381577 C-7.12757026 219.13366149 -8.00059341 219.13350721 -8.9000718 219.13334826 C-15.06769023 219.13248295 -21.23530562 219.13394629 -27.40292358 219.13629532 C-34.91384156 219.13909293 -42.42474908 219.13835588 -49.93566585 219.13301457 C-53.77165729 219.13037703 -57.60763126 219.12937338 -61.44362259 219.13266373 C-65.59239462 219.13616868 -69.74112212 219.13199859 -73.88989258 219.12698364 C-75.72880963 219.13032973 -75.72880963 219.13032973 -77.60487652 219.13374341 C-78.70700387 219.13113566 -79.80913122 219.12852791 -80.94465637 219.12584114 C-82.38317317 219.12559761 -82.38317317 219.12559761 -83.85075092 219.12534916 C-86 219 -86 219 -87 218 C-87.11130754 215.11754105 -87.15740327 212.25883032 -87.16113281 209.37548828 C-87.16609772 208.46951904 -87.17106262 207.5635498 -87.17617798 206.63012695 C-87.19086497 203.61018118 -87.19761894 200.59028825 -87.203125 197.5703125 C-87.20887927 195.46491495 -87.21463696 193.35951741 -87.22039795 191.25411987 C-87.23093197 186.82028967 -87.23675621 182.38647769 -87.24023438 177.95263672 C-87.245668 172.32138988 -87.26957392 166.69039116 -87.29820633 161.05922127 C-87.31702516 156.69720819 -87.32204882 152.33525196 -87.32357025 147.97320175 C-87.32656358 145.90115912 -87.33447705 143.82911666 -87.34775543 141.75711441 C-87.44799852 124.88425953 -86.12471393 108.54980821 -81.25 92.3125 C-80.99323486 91.44149658 -80.73646973 90.57049316 -80.47192383 89.6730957 C-73.3407585 66.25928161 -60.82367594 45.71481769 -44 28 C-43.55285645 27.525625 -43.10571289 27.05125 -42.64501953 26.5625 C-35.34436704 18.8633567 -27.65047486 12.1446698 -19 6 C-17.65035156 5.03320312 -17.65035156 5.03320312 -16.2734375 4.046875 C-11.0583441 0.5916738 -6.23906261 -2.14220979 0 0 Z " fill="#FF70E4" transform="translate(184,232)"/>
<path d="M0 0 C3.49407089 2.85095929 6.78460882 5.83910697 10 9 C11.04800781 10.02867188 11.04800781 10.02867188 12.1171875 11.078125 C27.99923946 27.76354923 34.08939575 50.18743433 34.203125 72.6875 C34.20882507 73.58887695 34.21452515 74.49025391 34.22039795 75.41894531 C34.22978754 77.31818491 34.23635768 79.21744036 34.24023438 81.11669922 C34.24988085 83.96482216 34.28093828 86.81220378 34.3125 89.66015625 C34.40717775 105.96068648 32.88702263 121.00284964 26 136 C25.50757813 137.07894531 25.01515625 138.15789062 24.5078125 139.26953125 C20.23216549 147.89242702 14.77096977 154.30426322 8 161 C7.195625 161.8146875 6.39125 162.629375 5.5625 163.46875 C-11.91006603 180.25160948 -34.33954579 185.72280232 -57.94140625 185.3046875 C-81.30635008 184.42244122 -101.37406058 172.78792437 -117.2734375 156.0703125 C-132.02761746 139.89648636 -138.14006789 117.75047793 -138.16796875 96.3046875 C-138.17129715 95.39478058 -138.17462555 94.48487366 -138.17805481 93.5473938 C-138.18309266 91.62958273 -138.18546411 89.71176299 -138.18530273 87.79394531 C-138.18747806 84.90414448 -138.20563688 82.01473295 -138.22460938 79.125 C-138.3047605 53.50050535 -133.59699693 30.74700596 -116 11 C-115.33484375 10.24074219 -114.6696875 9.48148438 -113.984375 8.69921875 C-107.82504462 2.09504784 -100.7248153 -2.4554699 -93 -7 C-92.1440625 -7.50660156 -91.288125 -8.01320313 -90.40625 -8.53515625 C-62.07093245 -23.97790431 -25.14297859 -18.90833756 0 0 Z " fill="#FF70E3" transform="translate(308,46)"/>
</svg>
